<?xml version="1.0" encoding="UTF-8" standalone="no"?>
<!DOCTYPE svg PUBLIC "-//W3C//DTD SVG 20010904//EN"
              "http://www.w3.org/TR/2001/REC-SVG-20010904/DTD/svg10.dtd">

<svg xmlns="http://www.w3.org/2000/svg"
     width="173.399mm" height="155.23mm"
     viewBox="0 0 983 880">
     <defs>
    <radialGradient id="gradient" gradientTransform="translate(-0.9 -0.85) scale(2, 2)">
      <stop offset="12%" stop-color="#00c6a7"/>
      <stop offset="34%" stop-color="#18a7a4"/>
      <stop offset="56%" stop-color="#1e899a"/>
      <stop offset="100%" stop-color="#1e4d92"/>
    </radialGradient>
  </defs>
  <path id="Selection"
        fill="url(#gradient)"
        d="M 92.00,0.06
           C 92.00,0.06 120.00,0.06 120.00,0.06
             120.00,0.06 170.00,0.06 170.00,0.06
             170.00,0.06 322.00,0.06 322.00,0.06
             322.00,0.06 788.00,0.06 788.00,0.06
             788.00,0.06 851.00,0.06 851.00,0.06
             851.00,0.06 883.00,0.06 883.00,0.06
             912.58,0.05 943.71,16.71 961.50,40.00
             967.11,47.35 971.92,55.43 975.40,64.00
             979.88,75.06 982.98,87.01 983.00,99.00
             983.00,99.00 983.00,539.00 983.00,539.00
             983.00,539.00 983.00,701.00 983.00,701.00
             983.00,701.00 983.00,783.00 983.00,783.00
             982.87,794.03 978.94,808.04 974.29,818.00
             956.67,855.77 920.94,879.93 879.00,880.00
             879.00,880.00 200.00,880.00 200.00,880.00
             200.00,880.00 135.00,880.00 135.00,880.00
             120.05,880.00 101.47,880.85 87.00,878.56
             62.79,874.74 37.89,860.38 22.89,841.00
             16.64,832.93 11.90,825.41 7.87,816.00
             3.35,805.45 0.02,791.48 0.00,780.00
             0.00,780.00 0.00,192.00 0.00,192.00
             0.00,192.00 0.00,125.00 0.00,125.00
             0.00,106.96 -1.16,92.71 3.91,75.00
             9.35,55.99 18.96,41.71 33.00,28.01
             41.06,20.15 47.24,16.33 57.00,11.03
             68.96,4.52 78.83,2.58 92.00,0.06 Z" />
  <path id="Selection #1"
        fill="#fff"
        d="M 308.00,316.00
           C 308.00,316.00 291.00,316.00 291.00,316.00
             279.88,316.00 271.21,316.67 272.04,302.00
             272.45,294.89 278.26,290.74 283.00,286.00
             283.00,286.00 312.00,257.00 312.00,257.00
             312.00,257.00 429.00,140.00 429.00,140.00
             429.00,140.00 466.00,103.01 466.00,103.01
             471.65,97.50 478.49,90.28 487.00,91.11
             493.05,91.70 500.74,99.79 505.00,104.00
             505.00,104.00 542.00,141.00 542.00,141.00
             542.00,141.00 670.00,269.00 670.00,269.00
             670.00,269.00 688.00,287.00 688.00,287.00
             690.53,289.53 695.30,293.95 696.83,297.00
             699.38,302.11 698.35,311.52 692.90,314.55
             689.92,316.20 686.29,315.99 683.00,316.00
             683.00,316.00 662.00,316.00 662.00,316.00
             662.00,316.00 662.00,366.00 662.00,366.00
             662.00,366.00 672.00,365.09 672.00,365.09
             672.00,365.09 708.00,365.09 708.00,365.09
             710.22,365.00 713.70,365.22 715.59,363.98
             717.81,362.51 718.96,358.41 720.04,356.00
             721.77,352.14 723.83,349.26 726.62,346.09
             735.20,336.33 747.11,331.31 760.00,331.01
             766.36,330.87 774.09,332.26 780.00,334.63
             806.03,345.04 814.88,378.87 800.53,402.00
             791.93,415.87 776.19,423.59 760.00,422.96
             748.36,422.51 735.16,417.73 727.21,408.96
             725.18,406.73 721.35,400.76 720.04,398.00
             718.80,395.40 718.13,391.66 715.61,390.02
             713.69,388.78 710.25,389.00 708.00,389.00
             708.00,389.00 662.00,389.00 662.00,389.00
             662.00,389.00 662.00,429.00 662.00,429.00
             662.00,429.00 684.00,429.00 684.00,429.00
             687.16,429.02 690.16,428.86 692.90,430.74
             699.02,434.94 699.86,445.65 693.79,450.28
             688.50,454.31 669.21,453.00 662.00,453.00
             662.00,453.00 662.00,493.00 662.00,493.00
             662.00,493.00 717.00,493.00 717.00,493.00
             720.09,473.33 737.18,461.10 756.00,458.85
             759.39,458.44 761.43,457.87 765.00,458.09
             769.36,458.36 774.97,460.05 779.00,461.73
             803.09,471.79 813.58,499.17 803.42,523.00
             801.46,527.60 799.13,532.20 795.79,535.98
             785.67,547.47 772.46,550.17 758.00,550.00
             745.84,549.85 733.11,543.38 725.47,534.00
             722.94,530.90 720.94,527.66 719.34,524.00
             718.37,521.80 717.61,518.40 715.57,517.02
             713.73,515.78 710.19,516.00 708.00,516.00
             708.00,516.00 661.00,516.00 661.00,516.00
             661.00,516.00 661.00,566.00 661.00,566.00
             661.00,566.00 685.00,566.00 685.00,566.00
             688.52,566.05 691.69,566.13 694.47,568.65
             699.72,573.41 699.17,583.15 692.96,586.91
             687.52,590.21 668.17,589.00 661.00,589.00
             661.00,589.00 661.00,604.00 661.00,604.00
             660.98,615.66 657.59,617.86 646.00,618.00
             646.00,618.00 560.00,618.00 560.00,618.00
             560.00,618.00 560.00,664.00 560.00,664.00
             560.00,666.26 559.78,669.68 561.02,671.61
             562.55,673.97 566.51,675.12 569.00,676.32
             571.92,677.74 577.54,681.30 579.96,683.37
             588.38,690.58 593.74,705.03 593.99,716.00
             594.14,722.63 593.05,729.84 590.55,736.00
             584.94,749.78 572.85,760.17 558.00,762.78
             554.26,763.16 548.89,763.04 545.00,762.78
             535.86,762.89 527.34,759.85 520.00,754.39
             508.71,746.00 502.88,732.85 502.09,719.00
             500.91,698.34 516.07,676.28 537.00,673.00
             537.00,673.00 537.00,618.00 537.00,618.00
             537.00,618.00 432.00,618.00 432.00,618.00
             432.00,618.00 432.00,664.00 432.00,664.00
             432.00,666.22 431.78,669.70 433.02,671.59
             434.49,673.81 438.60,674.96 441.00,676.04
             444.94,677.80 448.78,680.29 451.99,683.18
             461.52,691.77 467.64,706.10 466.91,719.00
             466.06,733.87 460.37,746.36 448.00,755.21
             437.97,762.40 429.87,763.14 418.00,763.00
             400.49,762.79 386.02,752.83 378.79,737.00
             375.73,730.29 374.92,723.29 375.00,716.00
             375.15,702.65 380.00,691.49 390.09,682.62
             393.26,679.83 396.14,677.77 400.00,676.04
             402.41,674.96 406.51,673.81 407.98,671.59
             409.22,669.70 409.00,666.22 409.00,664.00
             409.00,664.00 409.00,618.00 409.00,618.00
             409.00,618.00 322.00,618.00 322.00,618.00
             312.07,617.95 308.14,615.44 308.00,605.00
             308.00,605.00 308.00,589.00 308.00,589.00
             308.00,589.00 286.00,589.00 286.00,589.00
             282.43,588.98 279.23,589.06 276.10,586.99
             268.81,582.18 270.44,571.30 275.22,567.74
             277.54,566.01 280.25,566.04 283.00,566.00
             283.00,566.00 308.00,566.00 308.00,566.00
             308.00,566.00 308.00,516.00 308.00,516.00
             308.00,516.00 252.00,516.00 252.00,516.00
             250.31,532.32 235.55,545.81 220.00,549.32
             215.72,550.29 209.52,550.01 205.00,550.00
             179.81,549.96 162.00,529.62 162.00,505.00
             162.00,485.00 173.30,466.84 193.00,460.77
             212.81,454.67 236.15,462.05 247.07,480.00
             249.74,484.38 251.46,487.88 252.00,493.00
             252.00,493.00 308.00,493.00 308.00,493.00
             308.00,493.00 308.00,453.00 308.00,453.00
             301.08,453.00 282.22,454.26 277.04,450.99
             267.53,444.99 269.30,429.22 285.00,429.00
             285.00,429.00 308.00,429.00 308.00,429.00
             308.00,429.00 308.00,389.00 308.00,389.00
             308.00,389.00 252.00,389.00 252.00,389.00
             249.96,408.67 228.76,422.78 210.00,423.00
             190.86,423.22 175.32,416.03 166.78,398.00
             163.68,391.46 161.68,383.28 162.09,376.00
             163.01,359.85 169.50,345.85 184.00,337.53
             194.35,331.59 201.62,331.87 213.00,332.00
             231.50,332.23 249.20,347.85 252.00,366.00
             252.00,366.00 308.00,366.00 308.00,366.00
             308.00,366.00 308.00,316.00 308.00,316.00 Z
           M 658.00,293.00
           C 658.00,293.00 614.00,248.00 614.00,248.00
             614.00,248.00 529.00,163.00 529.00,163.00
             529.00,163.00 497.00,131.00 497.00,131.00
             494.67,128.67 488.16,121.20 485.00,121.20
             481.84,121.20 475.33,128.67 473.00,131.00
             473.00,131.00 441.00,163.00 441.00,163.00
             441.00,163.00 356.00,248.00 356.00,248.00
             356.00,248.00 312.00,293.00 312.00,293.00
             317.79,293.00 324.24,292.17 328.35,297.21
             332.05,301.75 331.00,311.24 331.00,317.00
             331.00,317.00 331.00,363.00 331.00,363.00
             331.00,363.00 331.00,595.00 331.00,595.00
             331.00,595.00 638.00,595.00 638.00,595.00
             638.00,595.00 638.00,363.00 638.00,363.00
             638.00,363.00 638.72,314.00 638.72,314.00
             639.38,308.39 637.88,301.83 641.65,297.21
             645.76,292.17 652.21,293.00 658.00,293.00 Z
           M 206.00,355.30
           C 195.11,357.41 186.83,364.36 186.09,376.00
             185.32,388.30 197.12,401.31 210.00,399.63
             212.83,399.27 216.53,397.55 219.00,396.12
             239.40,384.24 229.32,353.50 206.00,355.30 Z
           M 758.00,355.30
           C 747.35,357.55 739.41,365.79 739.13,377.00
             738.80,390.20 752.13,400.93 765.00,398.67
             785.94,395.01 790.21,366.48 770.00,356.92
             765.79,354.93 762.51,354.86 758.00,355.30 Z
           M 207.00,482.39
           C 195.79,484.12 184.64,493.78 185.84,506.00
             186.97,517.49 197.06,527.82 209.00,526.81
             212.02,526.56 215.36,525.53 218.00,524.04
             239.13,512.08 230.29,482.66 207.00,482.39 Z
           M 758.00,482.38
           C 748.64,484.97 740.73,492.05 739.30,502.00
             737.23,516.37 750.82,529.10 765.00,526.18
             792.80,520.45 786.62,478.92 758.00,482.38 Z
           M 419.00,695.34
           C 411.67,696.95 405.44,700.21 401.71,707.00
             394.09,720.84 403.08,738.23 419.00,739.80
             422.98,740.19 426.50,738.94 430.00,737.19
             448.23,728.06 446.53,704.62 429.00,696.96
             425.49,695.43 422.76,695.09 419.00,695.34 Z
           M 546.00,695.34
           C 536.19,697.50 527.65,704.62 526.21,715.00
             524.47,727.51 536.99,741.67 550.00,739.67
             560.76,738.02 571.63,727.41 570.45,716.00
             569.15,703.55 558.43,694.51 546.00,695.34 Z" />
</svg>
